<svg id="Grid--Streamline-Carbon" xmlns="http://www.w3.org/2000/svg" viewBox="0 0 16 16" height="16" width="16"><desc>Grid Streamline Icon: https://streamlinehq.com</desc><defs></defs><title>grid</title><path d="M6 2H3a1 1 0 0 0 -1 1v3a1 1 0 0 0 1 1h3a1 1 0 0 0 1 -1V3a1 1 0 0 0 -1 -1Zm0 4H3V3h3Z" fill="#000000" stroke-width="0.5"></path><path d="M13 2h-3a1 1 0 0 0 -1 1v3a1 1 0 0 0 1 1h3a1 1 0 0 0 1 -1V3a1 1 0 0 0 -1 -1Zm0 4h-3V3h3Z" fill="#000000" stroke-width="0.5"></path><path d="M6 9H3a1 1 0 0 0 -1 1v3a1 1 0 0 0 1 1h3a1 1 0 0 0 1 -1v-3a1 1 0 0 0 -1 -1Zm0 4H3v-3h3Z" fill="#000000" stroke-width="0.5"></path><path d="M13 9h-3a1 1 0 0 0 -1 1v3a1 1 0 0 0 1 1h3a1 1 0 0 0 1 -1v-3a1 1 0 0 0 -1 -1Zm0 4h-3v-3h3Z" fill="#000000" stroke-width="0.5"></path><path id="_Transparent_Rectangle_" d="M0 0h16v16H0Z" fill="none" stroke-width="0.5"></path></svg>