<svg id="List-Boxes--Streamline-Carbon" xmlns="http://www.w3.org/2000/svg" viewBox="0 0 20 20" height="20" width="20"><desc>List Boxes Streamline Icon: https://streamlinehq.com</desc><defs></defs><title>list--checked</title><path d="M10 5h8.75v1.25H10Z" fill="#000000" stroke-width="0.625"></path><path d="M10 13.75h8.75v1.25H10Z" fill="#000000" stroke-width="0.625"></path><path d="M6.25 8.75H2.5a1.2514375 1.2514375 0 0 1 -1.25 -1.25V3.75a1.2514375 1.2514375 0 0 1 1.25 -1.25h3.75a1.2514375 1.2514375 0 0 1 1.25 1.25v3.75a1.2514375 1.2514375 0 0 1 -1.25 1.25ZM2.5 3.75v3.75h3.75075L6.25 3.75Z" fill="#000000" stroke-width="0.625"></path><path d="M6.25 17.5H2.5a1.2514375 1.2514375 0 0 1 -1.25 -1.25v-3.75a1.2514375 1.2514375 0 0 1 1.25 -1.25h3.75a1.2514375 1.2514375 0 0 1 1.25 1.25v3.75a1.2514375 1.2514375 0 0 1 -1.25 1.25Zm-3.75 -5v3.75h3.75075L6.25 12.5Z" fill="#000000" stroke-width="0.625"></path><path id="_Transparent_Rectangle_" d="M0 0h20v20H0Z" fill="none" stroke-width="0.625"></path></svg>