<svg xmlns="http://www.w3.org/2000/svg" id="User-Avatar-Filled-Alt--Streamline-Carbon" viewBox="0 0 20 20" height="20" width="20"><desc fill="#f0671e">User Avatar Filled Alt Streamline Icon: https://streamlinehq.com</desc><defs fill="#f0671e"/><path d="M10 5a3.125 3.125 0 1 0 3.125 3.125 3.125 3.125 0 0 0 -3.125 -3.125Z" fill="#f0671e" stroke-width="0.625"/><path d="M10 1.25a8.75 8.75 0 1 0 8.75 8.75A8.759875000000001 8.759875000000001 0 0 0 10 1.25Zm4.9953125 14.328624999999999A3.126 3.126 0 0 0 11.875 12.5h-3.75a3.126 3.126 0 0 0 -3.1203125 3.0786249999999997 7.5 7.5 0 1 1 9.990625 0Z" fill="#f0671e" stroke-width="0.625"/><path id="_Transparent_Rectangle_" d="M0 0h20v20H0Z" fill="none" stroke-width="0.625"/></svg>