<svg id="Grid--Streamline-Carbon" xmlns="http://www.w3.org/2000/svg" viewBox="0 0 20 20" height="20" width="20"><desc>Grid Streamline Icon: https://streamlinehq.com</desc><defs></defs><title>grid</title><path d="M7.5 2.5H3.75a1.25 1.25 0 0 0 -1.25 1.25v3.75a1.25 1.25 0 0 0 1.25 1.25h3.75a1.25 1.25 0 0 0 1.25 -1.25V3.75a1.25 1.25 0 0 0 -1.25 -1.25Zm0 5H3.75V3.75h3.75Z" fill="#ef6824" stroke-width="0.625"></path><path d="M16.25 2.5h-3.75a1.25 1.25 0 0 0 -1.25 1.25v3.75a1.25 1.25 0 0 0 1.25 1.25h3.75a1.25 1.25 0 0 0 1.25 -1.25V3.75a1.25 1.25 0 0 0 -1.25 -1.25Zm0 5h-3.75V3.75h3.75Z" fill="#ef6824" stroke-width="0.625"></path><path d="M7.5 11.25H3.75a1.25 1.25 0 0 0 -1.25 1.25v3.75a1.25 1.25 0 0 0 1.25 1.25h3.75a1.25 1.25 0 0 0 1.25 -1.25v-3.75a1.25 1.25 0 0 0 -1.25 -1.25Zm0 5H3.75v-3.75h3.75Z" fill="#ef6824" stroke-width="0.625"></path><path d="M16.25 11.25h-3.75a1.25 1.25 0 0 0 -1.25 1.25v3.75a1.25 1.25 0 0 0 1.25 1.25h3.75a1.25 1.25 0 0 0 1.25 -1.25v-3.75a1.25 1.25 0 0 0 -1.25 -1.25Zm0 5h-3.75v-3.75h3.75Z" fill="#ef6824" stroke-width="0.625"></path><path id="_Transparent_Rectangle_" d="M0 0h20v20H0Z" fill="none" stroke-width="0.625"></path></svg>