<svg id="Logout--Streamline-Carbon" xmlns="http://www.w3.org/2000/svg" viewBox="0 0 20 20" height="20" width="20"><desc>Logout Streamline Icon: https://streamlinehq.com</desc><defs></defs><title>logout</title><path d="M3.75 18.75h7.5a1.2514375 1.2514375 0 0 0 1.25 -1.25v-1.875h-1.25v1.875H3.75V2.5h7.5v1.875h1.25V2.5a1.2514375 1.2514375 0 0 0 -1.25 -1.25H3.75a1.2514375 1.2514375 0 0 0 -1.25 1.25v15a1.2514375 1.2514375 0 0 0 1.25 1.25Z" fill="#000000" stroke-width="0.625"></path><path d="M12.866249999999999 12.866249999999999 15.1075 10.625 6.25 10.625l0 -1.25 8.8575 0 -2.24125 -2.24125L13.75 6.25l3.75 3.75 -3.75 3.75 -0.8837499999999999 -0.8837499999999999z" fill="#000000" stroke-width="0.625"></path><path id="_Transparent_Rectangle_" d="M0 0h20v20H0Z" fill="none" stroke-width="0.625"></path></svg>