<svg id="Shopping-Cart--Streamline-Carbon" xmlns="http://www.w3.org/2000/svg" viewBox="0 0 20 20" height="20" width="20"><desc>Shopping Cart Streamline Icon: https://streamlinehq.com</desc><defs></defs><title>shopping--cart</title><path d="M5 17.5a1.25 1.25 0 1 0 2.5 0 1.25 1.25 0 1 0 -2.5 0" fill="#000000" stroke-width="0.625"></path><path d="M13.75 17.5a1.25 1.25 0 1 0 2.5 0 1.25 1.25 0 1 0 -2.5 0" fill="#000000" stroke-width="0.625"></path><path d="M17.5 4.375H3.6375L3.125 1.75A0.625 0.625 0 0 0 2.5 1.25H0v1.25h1.9875L4.375 14.5a0.625 0.625 0 0 0 0.625 0.5h11.25v-1.25H5.5125L5 11.25h11.25a0.625 0.625 0 0 0 0.625 -0.48750000000000004l1.25 -5.625A0.625 0.625 0 0 0 17.5 4.375Zm-1.75 5.625H4.7625l-0.875 -4.375h12.83125Z" fill="#000000" stroke-width="0.625"></path><path id="_Transparent_Rectangle_" d="M0 0h20v20H0Z" fill="none" stroke-width="0.625"></path></svg>