<svg id="Sales-Ops--Streamline-Carbon" xmlns="http://www.w3.org/2000/svg" viewBox="0 0 20 20" height="20" width="20"><desc>Sales Ops Streamline Icon: https://streamlinehq.com</desc><defs></defs><path d="M18.75 3.75V2.5h-1.875V1.25h-1.25v1.25h-0.625c-0.68925 0 -1.25 0.5609375 -1.25 1.25v1.25c0 0.6890625 0.56075 1.25 1.25 1.25h2.5v1.25h-3.75v1.25h1.875v1.25h1.25v-1.25h0.625c0.68925 0 1.25 -0.5609375 1.25 -1.25v-1.25c0 -0.6890625 -0.56075 -1.25 -1.25 -1.25h-2.5V3.75h3.75Z" fill="#ef6824" stroke-width="0.625"></path><path d="M15 12.5v1.25h1.6161875l-2.2410625 2.2411875 -1.4323125 -1.433125c-0.1171875 -0.1171875 -0.27618750000000003 -0.18312499999999998 -0.44187499999999996 -0.18312499999999998H12.5c-0.1656875 0 -0.3239375 0.0659375 -0.441125 0.18312499999999998L8.75 17.8661875 9.6339375 18.75l2.8666875000000003 -2.8661874999999997 1.4323125 1.433125c0.1171875 0.1171875 0.27618750000000003 0.18312499999999998 0.4420625 0.18312499999999998 0.1656875 0 0.32468749999999996 -0.0659375 0.44187499999999996 -0.18312499999999998L17.5 14.633812500000001V16.25h1.25v-3.75h-3.75Z" fill="#ef6824" stroke-width="0.625"></path><path d="M2.5 18.75H1.25v-3.125c0 -2.4124375000000002 1.9625625 -4.375 4.375 -4.375h3.75c1.2428124999999999 0 2.4313124999999998 0.5313749999999999 3.2606249999999997 1.4580000000000002l-0.931375 0.83375c-0.5925 -0.6619999999999999 -1.4415 -1.0416875 -2.32925 -1.0416875H5.625c-1.7231874999999999 0 -3.125 1.401875 -3.125 3.125v3.125Z" fill="#ef6824" stroke-width="0.625"></path><path d="M7.5 10c2.4162500000000002 0 4.375 -1.95875 4.375 -4.375s-1.95875 -4.375 -4.375 -4.375 -4.375 1.95875 -4.375 4.375 1.95875 4.375 4.375 4.375Zm0 -7.5c1.7259375 0 3.125 1.3990625 3.125 3.125s-1.3990625 3.125 -3.125 3.125 -3.125 -1.3990625 -3.125 -3.125c0.002 -1.7250625 1.3999375 -3.123 3.125 -3.125Z" fill="#ef6824" stroke-width="0.625"></path><path id="_Transparent_Rectangle_" d="M0 0h20v20H0Z" fill="none" stroke-width="0.625"></path></svg>