<svg id="Delivery--Streamline-Carbon" xmlns="http://www.w3.org/2000/svg" viewBox="0 0 20 20" height="20" width="20"><desc>Delivery Streamline Icon: https://streamlinehq.com</desc><defs></defs><path d="M2.5 10h7.5v1.25H2.5Z" fill="#ef6824" stroke-width="0.625"></path><path d="M1.25 6.875h6.25v1.25H1.25Z" fill="#ef6824" stroke-width="0.625"></path><path d="m18.6993125 10.379000000000001 -1.875 -4.375A0.6240625000000001 0.6240625000000001 0 0 0 16.25 5.625h-1.875V4.375a0.625 0.625 0 0 0 -0.625 -0.625H3.75v1.25h9.375v7.847625000000001A2.49525 2.49525 0 0 0 11.9638125 14.375h-3.927625a2.5 2.5 0 1 0 0 1.25h3.927625a2.487875 2.487875 0 0 0 4.822375 0H18.125a0.625 0.625 0 0 0 0.625 -0.625v-4.375a0.6228125 0.6228125 0 0 0 -0.0506875 -0.246ZM5.625 16.25a1.25 1.25 0 1 1 1.25 -1.25 1.2514375 1.2514375 0 0 1 -1.25 1.25Zm8.75 -9.375h1.463l1.3394375 3.125H14.375Zm0 9.375a1.25 1.25 0 1 1 1.25 -1.25 1.2514375 1.2514375 0 0 1 -1.25 1.25Zm3.125 -1.875h-0.7138125A2.497125 2.497125 0 0 0 14.375 12.5v-1.25h3.125Z" fill="#ef6824" stroke-width="0.625"></path><path id="_Transparent_Rectangle_" d="M0 0h20v20H0Z" fill="none" stroke-width="0.625"></path></svg>