<svg xmlns="http://www.w3.org/2000/svg" viewBox="0 0 20 20" id="Circle-User--Streamline-Font-Awesome" height="20" width="20"><desc>Circle User Streamline Icon: https://streamlinehq.com</desc><!--! Font Awesome Free 6.5.2 by @fontawesome - https://fontawesome.com License - https://fontawesome.com/license/free (Icons: CC BY 4.0, Fonts: SIL OFL 1.1, Code: MIT License) Copyright 2024 Fonticons, Inc.--><path d="M15.87890625 15.609375c-0.74609375 -1.82421875 -2.5390625 -3.109375 -4.62890625 -3.109375h-2.5c-2.08984375 0 -3.8828125 1.28515625 -4.62890625 3.109375C2.73046875 14.1484375 1.875 12.17578125 1.875 10c0 -4.48828125 3.63671875 -8.125 8.125 -8.125s8.125 3.63671875 8.125 8.125c0 2.17578125 -0.85546875 4.1484375 -2.24609375 5.609375zm-1.56640625 1.27734375c-1.25 0.78515625 -2.7265625 1.23828125 -4.3125 1.23828125s-3.0625 -0.453125 -4.31640625 -1.23828125c0.28515625 -1.43359375 1.55078125 -2.51171875 3.06640625 -2.51171875h2.5c1.515625 0 2.78125 1.078125 3.06640625 2.51171875zM10 20a10 10 0 1 0 0 -20 10 10 0 1 0 0 20zm0 -10.625a1.5625 1.5625 0 1 1 0 -3.125 1.5625 1.5625 0 1 1 0 3.125zm-3.4375 -1.5625a3.4375 3.4375 0 1 0 6.875 0 3.4375 3.4375 0 1 0 -6.875 0z" fill="#ef6824" stroke-width="0.0391"></path></svg>