<svg width="32" height="33" viewBox="0 0 32 33" fill="none" xmlns="http://www.w3.org/2000/svg">
<path fill-rule="evenodd" clip-rule="evenodd" d="M0.492004 14.9238H15.7268V16.4238H3.20048L10.6345 23.096L17.4438 17.31L18.4151 18.4531L10.6075 25.0874L1.992 17.3547V27.8181H19.7777V20.0172H21.2777V29.3181H0.492004V14.9238Z" fill="black"/>
<path fill-rule="evenodd" clip-rule="evenodd" d="M8.68237 22.341L1.93342 29.09L0.872757 28.0293L7.62171 21.2804L8.68237 22.341ZM20.1789 29.09L13.43 22.341L14.4907 21.2804L21.2396 28.0293L20.1789 29.09Z" fill="black"/>
<path fill-rule="evenodd" clip-rule="evenodd" d="M17.7903 3.36428L21.4147 9.81746L19.5027 11.8856C19.689 12.7488 20.3801 13.737 21.3049 14.5838C21.805 15.0417 22.3358 15.4227 22.8129 15.6848C23.1069 15.8463 23.3509 15.9463 23.5371 16.0014L25.5103 13.6335L31.8191 17.6892L28.178 22.9036L27.7486 22.8684C21.3638 22.3462 17.5546 19.613 15.368 16.3049C13.2061 13.0344 12.6823 9.28366 12.6823 6.76068V6.3288L17.7903 3.36428ZM14.1877 7.18944C14.2459 9.51862 14.7922 12.7136 16.6193 15.4778C18.4902 18.3081 21.7537 20.765 27.444 21.3346L29.697 18.1082L25.8141 15.6121L24.1936 17.5567H23.8423C23.2865 17.5567 22.6595 17.3119 22.0906 16.9994C21.4973 16.6734 20.8702 16.2195 20.292 15.6901C19.1706 14.6633 18.0748 13.2041 17.9621 11.6939L17.9379 11.3685L19.5725 9.6005L17.2275 5.42525L14.1877 7.18944Z" fill="black"/>
</svg>
