<svg xmlns="http://www.w3.org/2000/svg" id="Delivery-Parcel--Streamline-Carbon" viewBox="0 0 32 32" height="20" width="20"><desc fill="#f0671e">Delivery Parcel Streamline Icon: https://streamlinehq.com</desc><defs fill="#f0671e"/><path d="m29.4819 8.624-10-5.5a1 1 0 0 0-.9638 0l-10 5.5a1 1 0 0 0 0 1.752L18 15.5913v10.7173l-3.0362-1.6693L14 26.3912l4.5181 2.4848a.9984.9984 0 0 0 .9638 0l10-5.5A1 1 0 0 0 30 22.5v-13a1 1 0 0 0-.5181-.876ZM19 5.1416 26.9248 9.5 19 13.8584 11.0752 9.5Zm9 16.7671-8 4.4V15.5913l8-4.4Z" fill="#f0671e"/><path transform="rotate(-180 6 15)" d="M2 14h8v2H2Z" fill="#f0671e"/><path transform="rotate(-180 8 23)" d="M4 22h8v2H4Z" fill="#f0671e"/><path transform="rotate(-180 10 19)" d="M6 18h8v2H6Z" fill="#f0671e"/><path id="_Transparent_Rectangle_" d="M0 0h32v32H0Z" fill="none"/></svg>